<?xml version="1.0"?>
<mxfile host="Electron" modified="2022-07-22T05:19:45.006Z" agent="5.0 (X11; Linux x86_64) AppleWebKit/537.36 (KHTML, like Gecko) draw.io/18.1.3 Chrome/100.0.4896.143 Electron/18.2.3 Safari/537.36" etag="t-rhA7p-ofMb-R1RxDuf" version="18.1.3">
  <diagram id="UbBcftxOWnzCqY7cNw6h" name="Page-1">
    <mxGraphModel dx="2" dy="1" grid="1" gridSize="10" guides="1" tooltips="1" connect="1" arrows="1" fold="1" page="1" pageScale="1" pageWidth="850" pageHeight="1100" math="0" shadow="0">
      <root>
        <mxCell id="0"/>
        <mxCell id="1" parent="0"/>
        <mxCell id="IQn3oVnuThHGhUpThT8S-1" value="tag" style="rounded=0;whiteSpace=wrap;html=1;fontFamily=mono;" parent="1" vertex="1">
          <mxGeometry x="80" y="80" width="260" height="20" as="geometry"/>
        </mxCell>
        <mxCell id="IQn3oVnuThHGhUpThT8S-2" value="1bit:5px" style="text;html=1;align=center;verticalAlign=middle;resizable=0;points=[];autosize=1;strokeColor=none;fillColor=none;fontFamily=mono;" parent="1" vertex="1">
          <mxGeometry x="135" y="55" width="70" height="20" as="geometry"/>
        </mxCell>
        <mxCell id="IQn3oVnuThHGhUpThT8S-3" value="6&lt;br&gt;3" style="text;html=1;align=left;verticalAlign=middle;resizable=0;points=[];autosize=1;strokeColor=none;fillColor=none;fontFamily=mono;" parent="1" vertex="1">
          <mxGeometry x="80" y="50" width="20" height="30" as="geometry"/>
        </mxCell>
        <mxCell id="IQn3oVnuThHGhUpThT8S-4" value="&lt;font style=&quot;font-size: 10px;&quot;&gt;npc&lt;/font&gt;" style="rounded=0;whiteSpace=wrap;html=1;fontFamily=mono;" parent="1" vertex="1">
          <mxGeometry x="380" y="80" width="20" height="20" as="geometry"/>
        </mxCell>
        <mxCell id="IQn3oVnuThHGhUpThT8S-5" value="-" style="rounded=0;whiteSpace=wrap;html=1;fontFamily=mono;" parent="1" vertex="1">
          <mxGeometry x="340" y="80" width="20" height="20" as="geometry"/>
        </mxCell>
        <mxCell id="IQn3oVnuThHGhUpThT8S-6" value="1&lt;br&gt;2" style="text;html=1;align=left;verticalAlign=middle;resizable=0;points=[];autosize=1;strokeColor=none;fillColor=none;fontFamily=mono;" parent="1" vertex="1">
          <mxGeometry x="330" y="50" width="20" height="30" as="geometry"/>
        </mxCell>
        <mxCell id="IQn3oVnuThHGhUpThT8S-7" value="1&lt;br&gt;1" style="text;html=1;align=left;verticalAlign=middle;resizable=0;points=[];autosize=1;strokeColor=none;fillColor=none;fontFamily=mono;" parent="1" vertex="1">
          <mxGeometry x="340" y="50" width="20" height="30" as="geometry"/>
        </mxCell>
        <mxCell id="IQn3oVnuThHGhUpThT8S-8" value="0&lt;br&gt;4" style="text;html=1;align=left;verticalAlign=middle;resizable=0;points=[];autosize=1;strokeColor=none;fillColor=none;fontFamily=mono;" parent="1" vertex="1">
          <mxGeometry x="370" y="50" width="20" height="30" as="geometry"/>
        </mxCell>
        <mxCell id="IQn3oVnuThHGhUpThT8S-9" value="0&lt;br&gt;3" style="text;html=1;align=left;verticalAlign=middle;resizable=0;points=[];autosize=1;strokeColor=none;fillColor=none;fontFamily=mono;" parent="1" vertex="1">
          <mxGeometry x="380" y="50" width="20" height="30" as="geometry"/>
        </mxCell>
        <mxCell id="IQn3oVnuThHGhUpThT8S-10" value="0&lt;br&gt;0" style="text;html=1;align=left;verticalAlign=middle;resizable=0;points=[];autosize=1;strokeColor=none;fillColor=none;fontFamily=mono;" parent="1" vertex="1">
          <mxGeometry x="390" y="50" width="20" height="30" as="geometry"/>
        </mxCell>
        <mxCell id="IQn3oVnuThHGhUpThT8S-11" value="uop0" style="rounded=0;whiteSpace=wrap;html=1;fontFamily=mono;" parent="1" vertex="1">
          <mxGeometry x="240" y="100" width="160" height="20" as="geometry"/>
        </mxCell>
        <mxCell id="IQn3oVnuThHGhUpThT8S-12" value="uop1" style="rounded=0;whiteSpace=wrap;html=1;fontFamily=mono;" parent="1" vertex="1">
          <mxGeometry x="80" y="100" width="160" height="20" as="geometry"/>
        </mxCell>
        <mxCell id="IQn3oVnuThHGhUpThT8S-13" value="uop2" style="rounded=0;whiteSpace=wrap;html=1;fontFamily=mono;" parent="1" vertex="1">
          <mxGeometry x="240" y="120" width="160" height="20" as="geometry"/>
        </mxCell>
        <mxCell id="IQn3oVnuThHGhUpThT8S-14" value="uop3" style="rounded=0;whiteSpace=wrap;html=1;fontFamily=mono;" parent="1" vertex="1">
          <mxGeometry x="80" y="120" width="160" height="20" as="geometry"/>
        </mxCell>
        <mxCell id="IQn3oVnuThHGhUpThT8S-15" value="iimm" style="rounded=0;whiteSpace=wrap;html=1;fontFamily=mono;" parent="1" vertex="1">
          <mxGeometry x="80" y="140" width="320" height="20" as="geometry"/>
        </mxCell>
        <mxCell id="IQn3oVnuThHGhUpThT8S-16" value="&lt;b&gt;uop slot&lt;/b&gt;" style="text;html=1;align=center;verticalAlign=middle;resizable=0;points=[];autosize=1;strokeColor=none;fillColor=none;fontFamily=mono;" parent="1" vertex="1">
          <mxGeometry x="205" y="40" width="70" height="20" as="geometry"/>
        </mxCell>
        <mxCell id="wIPPXA1LrkD9kVQAp7Af-2" value="uop4" style="rounded=0;whiteSpace=wrap;html=1;fontFamily=mono;fillColor=none;dashed=1;dashPattern=1 4;strokeColor=none;" parent="1" vertex="1">
          <mxGeometry x="240" y="140" width="160" height="20" as="geometry"/>
        </mxCell>
        <mxCell id="wIPPXA1LrkD9kVQAp7Af-3" value="uop5" style="rounded=0;whiteSpace=wrap;html=1;fontFamily=mono;fillColor=none;dashed=1;dashPattern=1 4;strokeColor=none;" parent="1" vertex="1">
          <mxGeometry x="80" y="140" width="160" height="20" as="geometry"/>
        </mxCell>
        <mxCell id="wIPPXA1LrkD9kVQAp7Af-4" value="" style="endArrow=none;html=1;rounded=0;" parent="1" edge="1">
          <mxGeometry width="50" height="50" relative="1" as="geometry">
            <mxPoint x="240" y="160" as="sourcePoint"/>
            <mxPoint x="240" y="157" as="targetPoint"/>
          </mxGeometry>
        </mxCell>
        <mxCell id="wIPPXA1LrkD9kVQAp7Af-5" value="" style="endArrow=none;html=1;rounded=0;" parent="1" edge="1">
          <mxGeometry width="50" height="50" relative="1" as="geometry">
            <mxPoint x="240" y="143" as="sourcePoint"/>
            <mxPoint x="240" y="140" as="targetPoint"/>
          </mxGeometry>
        </mxCell>
        <mxCell id="wIPPXA1LrkD9kVQAp7Af-6" value="&lt;font style=&quot;font-size: 10px;&quot;&gt;un&lt;/font&gt;" style="rounded=0;whiteSpace=wrap;html=1;fontFamily=mono;" parent="1" vertex="1">
          <mxGeometry x="365" y="80" width="15" height="20" as="geometry"/>
        </mxCell>
        <mxCell id="XvkFzXtXo5mlpTNBSdQh-1" value="&lt;font style=&quot;font-size: 8px;&quot;&gt;v&lt;/font&gt;" style="rounded=0;whiteSpace=wrap;html=1;fontFamily=mono;" parent="1" vertex="1">
          <mxGeometry x="360" y="80" width="5" height="20" as="geometry"/>
        </mxCell>
      </root>
    </mxGraphModel>
  </diagram>
</mxfile>
